<svg xmlns="http://www.w3.org/2000/svg" xmlns:xlink="http://www.w3.org/1999/xlink" xmlns:lucid="lucid" width="1896" height="1666"><g transform="translate(-68 -49)" lucid:page-tab-id="0_0"><path d="M723.9 669.68h41.77c.16 0 .3-.13.3-.3 0-.15.12-.28.28-.28h24.28" stroke="#303030" stroke-width="2" fill="none"/><path d="M723.9 670.68h-1v-2h1z" fill="#303030"/><path d="M805.8 669.1l-14.27 4.63v-9.27z" stroke="#303030" stroke-width="2" fill="#303030"/><path d="M811.03 628.65c0-1.65 1.34-3 3-3h170.1c1.65 0 3 1.35 3 3V729.4c-29.4-17.33-47.72-17.33-58.82-17.33-17.6 0-41.02 17.33-58.63 17.33-10.92 0-29.4 0-58.64-17.33z" stroke="#00987e" stroke-width="4" fill="#95d6cb"/><use xlink:href="#a" transform="matrix(1,0,0,1,816.592756577199,631.2140693595537) translate(42.07499999999999 43.454)"/><path d="M857.38 220.67c0-1.66 1.34-3 3-3h181.53c1.67 0 3 1.34 3 3v104.97c0 1.66-1.33 3-3 3H860.4c-1.66 0-3-1.34-3-3z" stroke="#00987e" stroke-width="4" fill="#95d6cb"/><use xlink:href="#b" transform="matrix(1,0,0,1,862.9374283816104,223.22675655611997) translate(20.100000000000005 44.653999999999996)"/><use xlink:href="#c" transform="matrix(1,0,0,1,862.9374283816104,223.22675655611997) translate(82.05000000000001 44.653999999999996)"/><use xlink:href="#d" transform="matrix(1,0,0,1,862.9374283816104,223.22675655611997) translate(146.89999999999998 44.653999999999996)"/><use xlink:href="#e" transform="matrix(1,0,0,1,862.9374283816104,223.22675655611997) translate(28.09999999999999 66.254)"/><use xlink:href="#f" transform="matrix(1,0,0,1,862.9374283816104,223.22675655611997) translate(64.05 66.254)"/><use xlink:href="#g" transform="matrix(1,0,0,1,862.9374283816104,223.22675655611997) translate(101 66.254)"/><path d="M392.37 555.6c18.2 0 32.95 17.77 32.95 39.68 0 21.9-14.75 39.67-32.95 39.67h-98.85c-18.2 0-32.95-17.76-32.95-39.67 0-21.9 14.75-39.67 32.95-39.67z" stroke="#00987e" stroke-width="4" fill="#95d6cb"/><use xlink:href="#b" transform="matrix(1,0,0,1,266.12928204105646,561.1722421043213) translate(18.075 39.954)"/><use xlink:href="#h" transform="matrix(1,0,0,1,266.12928204105646,561.1722421043213) translate(80.025 39.954)"/><path d="M556.14 628.65c0-1.65 1.34-3 3-3H717.9c1.64 0 3 1.35 3 3v82.06c0 1.66-1.36 3-3 3H559.13c-1.66 0-3-1.34-3-3z" stroke="#00987e" stroke-width="4" fill="#95d6cb"/><use xlink:href="#i" transform="matrix(1,0,0,1,561.6970616529364,631.2140693595537) translate(43.55 33.153999999999996)"/><use xlink:href="#j" transform="matrix(1,0,0,1,561.6970616529364,631.2140693595537) translate(34.55 54.754)"/><path d="M678.38 1392.3c1.25-1.08 3.27-1.08 4.52 0l65.15 56.87c1.25 1.1 1.25 2.86 0 3.95l-65.15 56.86c-1.25 1.1-3.27 1.1-4.52 0l-65.15-56.86c-1.25-1.1-1.25-2.86 0-3.95z" stroke="#00987e" stroke-width="4" fill="#95d6cb"/><use xlink:href="#k" transform="matrix(1,0,0,1,616.5315883155657,1395.9011541323412) translate(30.049999999999994 50.153999999999996)"/><use xlink:href="#l" transform="matrix(1,0,0,1,616.5315883155657,1395.9011541323412) translate(86 50.153999999999996)"/><use xlink:href="#m" transform="matrix(1,0,0,1,616.5315883155657,1395.9011541323412) translate(37.724999999999994 71.754)"/><use xlink:href="#n" transform="matrix(1,0,0,1,616.5315883155657,1395.9011541323412) translate(81.275 71.754)"/><path d="M978.08 1485.8l.65 1.55 1.55.64h204.18v2H979.88l-2.7-1.12-1.1-2.7v-5.3h2zm-1.1-34.54l1.1 2.7v5.3h-2v-4.92l-.64-1.55-1.56-.66H752.2v-2h222.08z" fill="#303030"/><path d="M752.23 1452.14h-1.5l.47-1-.47-1h1.5zM1199.73 1489l-14.27 4.63v-9.27z" fill="#303030"/><path d="M1202.96 1489l-18.5 6V1483zm-16.5 3.25l10.03-3.26-10.04-3.27z" fill="#303030"/><use xlink:href="#o" transform="matrix(1,0,0,1,964.0811607784825,1459.2689996662173) translate(0 14.4)"/><path d="M648.83 943.22c0-1.65 1.34-3 3-3h202.55c1.65 0 3 1.35 3 3v118.6c-34.83-20.3-56.52-20.3-69.66-20.3-20.85 0-48.6 20.3-69.45 20.3-12.93 0-34.83 0-69.44-20.3z" stroke="#00987e" stroke-width="4" fill="#95d6cb"/><use xlink:href="#p" transform="matrix(1,0,0,1,654.3864052617591,945.7850249066765) translate(72.05 18.55399999999999)"/><use xlink:href="#q" transform="matrix(1,0,0,1,654.3864052617591,945.7850249066765) translate(18.174999999999994 40.15399999999999)"/><use xlink:href="#r" transform="matrix(1,0,0,1,654.3864052617591,945.7850249066765) translate(39.124999999999986 61.75399999999999)"/><use xlink:href="#s" transform="matrix(1,0,0,1,654.3864052617591,945.7850249066765) translate(92.975 61.75399999999999)"/><use xlink:href="#t" transform="matrix(1,0,0,1,654.3864052617591,945.7850249066765) translate(43.57499999999999 83.35400000000001)"/><use xlink:href="#u" transform="matrix(1,0,0,1,654.3864052617591,945.7850249066765) translate(99.57499999999999 83.35400000000001)"/><path d="M1204.96 1439.68c0-1.65 1.34-3 3-3h177.72c1.66 0 3 1.35 3 3v98.62c0 1.66-1.34 3-3 3h-177.72c-1.66 0-3-1.34-3-3z" stroke="#00987e" stroke-width="4" fill="#ffeca9"/><path d="M1404.68 1436.68c0 8.84-7.16 16-16 16-8.83 0-16-7.16-16-16 0-8.83 7.17-16 16-16 8.84 0 16 7.17 16 16z" fill="#78b740"/><path d="M1382.05 1434.2l-2.74 2.92 6.73 6.3 12.02-11.28-2.74-2.9-9.27 8.7-3.98-3.74z" fill="#fff"/><use xlink:href="#v" transform="matrix(1,0,0,1,1210.5224669146958,1442.2458259367527) translate(21.59999999999999 41.653999999999996)"/><use xlink:href="#w" transform="matrix(1,0,0,1,1210.5224669146958,1442.2458259367527) translate(67.6 41.653999999999996)"/><use xlink:href="#x" transform="matrix(1,0,0,1,1210.5224669146958,1442.2458259367527) translate(91.55 41.653999999999996)"/><use xlink:href="#y" transform="matrix(1,0,0,1,1210.5224669146958,1442.2458259367527) translate(34.55 63.254)"/><use xlink:href="#z" transform="matrix(1,0,0,1,1210.5224669146958,1442.2458259367527) translate(101.5 63.254)"/><path d="M750.3 94.94c0-1.65 1.35-3 3-3h530.8c1.65 0 3 1.35 3 3v64.27c0 1.66-1.35 3-3 3H753.3c-1.65 0-3-1.34-3-3z" stroke="#00987e" stroke-width="4" fill="#95d6cb"/><use xlink:href="#A" transform="matrix(1,0,0,1,755.3110571329606,96.94248230718428) translate(177.625 34.1)"/><use xlink:href="#B" transform="matrix(1,0,0,1,755.3110571329606,96.94248230718428) translate(285.525 34.1)"/><path d="M1044.9 941.86c0-1.65 1.35-3 3-3h255.27c1.66 0 3 1.35 3 3v116.97c0 1.66-1.34 3-3 3H1047.9c-1.65 0-3-1.34-3-3z" stroke="#00987e" stroke-width="4" fill="#95d6cb"/><use xlink:href="#C" transform="matrix(1,0,0,1,1050.4720063655834,944.4255222049313) translate(19.749999999999982 50.653999999999996)"/><use xlink:href="#D" transform="matrix(1,0,0,1,1050.4720063655834,944.4255222049313) translate(97.64999999999999 50.653999999999996)"/><use xlink:href="#E" transform="matrix(1,0,0,1,1050.4720063655834,944.4255222049313) translate(158.55 50.653999999999996)"/><use xlink:href="#F" transform="matrix(1,0,0,1,1050.4720063655834,944.4255222049313) translate(52.249999999999986 72.254)"/><use xlink:href="#G" transform="matrix(1,0,0,1,1050.4720063655834,944.4255222049313) translate(120.1 72.254)"/><path d="M509.8 350.6c0-1.67 1.33-3 3-3h181.53c1.65 0 3 1.33 3 3v104.96c0 1.65-1.35 3-3 3H512.8c-1.67 0-3-1.35-3-3z" stroke="#00987e" stroke-width="4" fill="#95d6cb"/><use xlink:href="#H" transform="matrix(1,0,0,1,515.3523898485248,353.14603853308546) translate(25.59999999999999 44.653999999999996)"/><use xlink:href="#I" transform="matrix(1,0,0,1,515.3523898485248,353.14603853308546) translate(80.5 44.653999999999996)"/><use xlink:href="#d" transform="matrix(1,0,0,1,515.3523898485248,353.14603853308546) translate(141.4 44.653999999999996)"/><use xlink:href="#e" transform="matrix(1,0,0,1,515.3523898485248,353.14603853308546) translate(25.100000000000005 66.254)"/><use xlink:href="#J" transform="matrix(1,0,0,1,515.3523898485248,353.14603853308546) translate(61.05000000000001 66.254)"/><use xlink:href="#K" transform="matrix(1,0,0,1,515.3523898485248,353.14603853308546) translate(99.00000000000001 66.254)"/><use xlink:href="#L" transform="matrix(1,0,0,1,515.3523898485248,353.14603853308546) translate(145.95 66.254)"/><path d="M1210.8 341.44c0-1.65 1.35-3 3-3h187.8c1.67 0 3 1.35 3 3v104.98c0 1.65-1.33 3-3 3h-187.8c-1.65 0-3-1.35-3-3z" stroke="#00987e" stroke-width="4" fill="#95d6cb"/><use xlink:href="#H" transform="matrix(1,0,0,1,1216.3651912008042,344.00443709731195) translate(28.59999999999999 44.653999999999996)"/><use xlink:href="#I" transform="matrix(1,0,0,1,1216.3651912008042,344.00443709731195) translate(83.5 44.653999999999996)"/><use xlink:href="#M" transform="matrix(1,0,0,1,1216.3651912008042,344.00443709731195) translate(144.4 44.653999999999996)"/><use xlink:href="#e" transform="matrix(1,0,0,1,1216.3651912008042,344.00443709731195) translate(15.600000000000005 66.254)"/><use xlink:href="#N" transform="matrix(1,0,0,1,1216.3651912008042,344.00443709731195) translate(51.55000000000001 66.254)"/><use xlink:href="#O" transform="matrix(1,0,0,1,1216.3651912008042,344.00443709731195) translate(113.50000000000001 66.254)"/><use xlink:href="#L" transform="matrix(1,0,0,1,1216.3651912008042,344.00443709731195) translate(161.45 66.254)"/><path d="M392.37 645.4c18.2 0 32.95 17.75 32.95 39.65s-14.75 39.67-32.95 39.67h-98.85c-18.2 0-32.95-17.76-32.95-39.67 0-21.9 14.75-39.66 32.95-39.66z" stroke="#00987e" stroke-width="4" fill="#95d6cb"/><use xlink:href="#H" transform="matrix(1,0,0,1,266.12928204105646,650.9476660127117) translate(14.09999999999999 39.954)"/><use xlink:href="#I" transform="matrix(1,0,0,1,266.12928204105646,650.9476660127117) translate(69 39.954)"/><use xlink:href="#P" transform="matrix(1,0,0,1,266.12928204105646,650.9476660127117) translate(129.9 39.954)"/><path d="M392.37 735.16c18.2 0 32.95 17.76 32.95 39.67 0 21.9-14.75 39.67-32.95 39.67h-98.85c-18.2 0-32.95-17.76-32.95-39.67 0-21.9 14.75-39.67 32.95-39.67z" stroke="#00987e" stroke-width="4" fill="#95d6cb"/><use xlink:href="#H" transform="matrix(1,0,0,1,266.12928204105646,740.7230899211019) translate(14.09999999999999 39.954)"/><use xlink:href="#I" transform="matrix(1,0,0,1,266.12928204105646,740.7230899211019) translate(69 39.954)"/><use xlink:href="#Q" transform="matrix(1,0,0,1,266.12928204105646,740.7230899211019) translate(129.9 39.954)"/><path d="M428.32 685.05h60.4c1.66 0 3-1.34 3-3v-13.27c0-1.66 1.35-3 3-3h42.9" stroke="#303030" stroke-width="2" fill="none"/><path d="M428.35 686.05h-1.1l.07-.96-.03-1.05h1.05z" fill="#303030"/><path d="M552.9 665.78l-14.27 4.63v-9.26z" stroke="#303030" stroke-width="2" fill="#303030"/><path d="M428.32 774.83h60.4c1.66 0 3-1.34 3-3V668.78c0-1.66 1.35-3 3-3h42.9" stroke="#303030" stroke-width="2" fill="none"/><path d="M428.35 775.83h-1.1l.07-.97-.03-1.03h1.05z" fill="#303030"/><path d="M552.9 665.78l-14.27 4.63v-9.26z" stroke="#303030" stroke-width="2" fill="#303030"/><path d="M317.18 880.22c18.2 0 32.95 17.9 32.95 40s-14.75 40-32.95 40h-98.85c-18.2 0-32.95-17.9-32.95-40s14.75-40 32.95-40z" stroke="#00987e" stroke-width="4" fill="#95d6cb"/><use xlink:href="#b" transform="matrix(1,0,0,1,190.9396872176454,885.7774126393027) translate(18.075 18.354000000000003)"/><use xlink:href="#R" transform="matrix(1,0,0,1,190.9396872176454,885.7774126393027) translate(80.025 18.354000000000003)"/><use xlink:href="#S" transform="matrix(1,0,0,1,190.9396872176454,885.7774126393027) translate(20.174999999999994 39.954)"/><use xlink:href="#T" transform="matrix(1,0,0,1,190.9396872176454,885.7774126393027) translate(84.97500000000001 39.954)"/><use xlink:href="#U" transform="matrix(1,0,0,1,190.9396872176454,885.7774126393027) translate(52.02499999999999 61.554)"/><path d="M317.18 1001.12c18.2 0 32.95 17.84 32.95 39.85 0 22.02-14.75 39.86-32.95 39.86h-98.85c-18.2 0-32.95-17.84-32.95-39.86 0-22 14.75-39.85 32.95-39.85z" stroke="#00987e" stroke-width="4" fill="#95d6cb"/><use xlink:href="#H" transform="matrix(1,0,0,1,190.9396872176454,1006.6782606179071) translate(14.09999999999999 18.354000000000003)"/><use xlink:href="#I" transform="matrix(1,0,0,1,190.9396872176454,1006.6782606179071) translate(69 18.354000000000003)"/><use xlink:href="#d" transform="matrix(1,0,0,1,190.9396872176454,1006.6782606179071) translate(129.9 18.354000000000003)"/><use xlink:href="#V" transform="matrix(1,0,0,1,190.9396872176454,1006.6782606179071) translate(33.07499999999999 39.954)"/><use xlink:href="#W" transform="matrix(1,0,0,1,190.9396872176454,1006.6782606179071) translate(52.02499999999999 61.554)"/><path d="M428.32 595.28h60.4c1.66 0 3 1.34 3 3v64.5c0 1.65 1.35 3 3 3h42.9" stroke="#303030" stroke-width="2" fill="none"/><path d="M428.35 596.28h-1.1l.07-.97-.03-1.02h1.05z" fill="#303030"/><path d="M552.9 665.78l-14.27 4.63v-9.26z" stroke="#303030" stroke-width="2" fill="#303030"/><path d="M899.08 723.62V831.2c0 1.66-1.34 3-3 3H165.2c-1.65 0-3 1.35-3 3v80.35c0 1.47 1.2 2.67 2.68 2.67" stroke="#303030" stroke-width="2" fill="none"/><path d="M900.08 723.64h-2V723l2-.77z" fill="#303030"/><path d="M180.14 920.22l-14.26 4.63v-9.27z" stroke="#303030" stroke-width="2" fill="#303030"/><path d="M899.08 721.47V831.2c0 1.66-1.34 3-3 3H165.2c-1.65 0-3 1.35-3 3v80.02c0 1.65 1.35 3 3 3h1.68M899.08 721.5v-1.03" stroke="#303030" stroke-width="2" fill="none"/><path d="M182.14 920.22l-14.26 4.63v-9.27z" stroke="#303030" stroke-width="2" fill="#303030"/><path d="M899.08 723.62v96c0 1.65-1.34 3-3 3h-747.7c-1.66 0-3 1.34-3 3v212.35c0 1.66 1.34 3 3 3h16.5" stroke="#303030" stroke-width="2" fill="none"/><path d="M900.08 723.64h-2V723l2-.77z" fill="#303030"/><path d="M180.14 1040.97l-14.26 4.64v-9.26z" stroke="#303030" stroke-width="2" fill="#303030"/><path d="M317.18 1251.3c18.2 0 32.95 17.85 32.95 39.86 0 22-14.75 39.86-32.95 39.86h-98.85c-18.2 0-32.95-17.85-32.95-39.86 0-22 14.75-39.85 32.95-39.85z" stroke="#00987e" stroke-width="4" fill="#95d6cb"/><use xlink:href="#H" transform="matrix(1,0,0,1,190.9396872176454,1256.8671387191073) translate(14.09999999999999 18.354000000000003)"/><use xlink:href="#I" transform="matrix(1,0,0,1,190.9396872176454,1256.8671387191073) translate(69 18.354000000000003)"/><use xlink:href="#M" transform="matrix(1,0,0,1,190.9396872176454,1256.8671387191073) translate(129.9 18.354000000000003)"/><use xlink:href="#V" transform="matrix(1,0,0,1,190.9396872176454,1256.8671387191073) translate(33.07499999999999 39.954)"/><use xlink:href="#W" transform="matrix(1,0,0,1,190.9396872176454,1256.8671387191073) translate(52.02499999999999 61.554)"/><path d="M317.18 1126.07c18.2 0 32.95 17.9 32.95 40s-14.75 40-32.95 40h-98.85c-18.2 0-32.95-17.9-32.95-40s14.75-40 32.95-40z" stroke="#00987e" stroke-width="4" fill="#95d6cb"/><use xlink:href="#b" transform="matrix(1,0,0,1,190.9396872176454,1131.628969931595) translate(18.075 18.354000000000003)"/><use xlink:href="#R" transform="matrix(1,0,0,1,190.9396872176454,1131.628969931595) translate(80.025 18.354000000000003)"/><use xlink:href="#S" transform="matrix(1,0,0,1,190.9396872176454,1131.628969931595) translate(20.174999999999994 39.954)"/><use xlink:href="#T" transform="matrix(1,0,0,1,190.9396872176454,1131.628969931595) translate(84.97500000000001 39.954)"/><use xlink:href="#U" transform="matrix(1,0,0,1,190.9396872176454,1131.628969931595) translate(52.02499999999999 61.554)"/><path d="M899.08 723.62V842.8c0 1.65-1.34 3-3 3h-747.7c-1.66 0-3 1.33-3 3v314.27c0 1.65 1.34 3 3 3h16.5" stroke="#303030" stroke-width="2" fill="none"/><path d="M900.08 723.64h-2V723l2-.77z" fill="#303030"/><path d="M180.14 1166.07l-14.26 4.63v-9.27z" stroke="#303030" stroke-width="2" fill="#303030"/><path d="M899.08 723.62v96c0 1.65-1.34 3-3 3h-747.7c-1.66 0-3 1.34-3 3v462.54c0 1.66 1.34 3 3 3h16.5" stroke="#303030" stroke-width="2" fill="none"/><path d="M900.08 723.64h-2V723l2-.77z" fill="#303030"/><path d="M180.14 1291.16l-14.26 4.64v-9.27z" stroke="#303030" stroke-width="2" fill="#303030"/><path d="M648.83 1184.8c0-1.67 1.34-3 3-3h202.55c1.65 0 3 1.33 3 3v118.6c-34.83-20.3-56.52-20.3-69.66-20.3-20.85 0-48.6 20.3-69.45 20.3-12.93 0-34.83 0-69.44-20.3z" stroke="#00987e" stroke-width="4" fill="#95d6cb"/><use xlink:href="#p" transform="matrix(1,0,0,1,654.3864052617591,1187.35013101249) translate(72.05 18.55399999999999)"/><use xlink:href="#q" transform="matrix(1,0,0,1,654.3864052617591,1187.35013101249) translate(18.174999999999994 40.15399999999999)"/><use xlink:href="#r" transform="matrix(1,0,0,1,654.3864052617591,1187.35013101249) translate(39.124999999999986 61.75399999999999)"/><use xlink:href="#s" transform="matrix(1,0,0,1,654.3864052617591,1187.35013101249) translate(92.975 61.75399999999999)"/><use xlink:href="#t" transform="matrix(1,0,0,1,654.3864052617591,1187.35013101249) translate(43.57499999999999 83.35400000000001)"/><use xlink:href="#u" transform="matrix(1,0,0,1,654.3864052617591,1187.35013101249) translate(99.57499999999999 83.35400000000001)"/><path d="M1044.9 1183.43c0-1.66 1.35-3 3-3h255.27c1.66 0 3 1.34 3 3v116.97c0 1.65-1.34 3-3 3H1047.9c-1.65 0-3-1.35-3-3z" stroke="#00987e" stroke-width="4" fill="#95d6cb"/><g><use xlink:href="#C" transform="matrix(1,0,0,1,1050.4720063655834,1185.990628310745) translate(19.749999999999982 50.653999999999996)"/><use xlink:href="#D" transform="matrix(1,0,0,1,1050.4720063655834,1185.990628310745) translate(97.64999999999999 50.653999999999996)"/><use xlink:href="#E" transform="matrix(1,0,0,1,1050.4720063655834,1185.990628310745) translate(158.55 50.653999999999996)"/><use xlink:href="#F" transform="matrix(1,0,0,1,1050.4720063655834,1185.990628310745) translate(52.249999999999986 72.254)"/><use xlink:href="#G" transform="matrix(1,0,0,1,1050.4720063655834,1185.990628310745) translate(120.1 72.254)"/></g><path d="M353.13 1166.07h143.35c1.65 0 3 1.34 3 3v70.52c0 1.65 1.34 3 3 3h125.84" stroke="#303030" stroke-width="2" fill="none"/><path d="M353.16 1167.07h-1.1l.07-.98-.03-1.03h1.06z" fill="#303030"/><path d="M643.6 1242.6l-14.28 4.63v-9.27z" stroke="#303030" stroke-width="2" fill="#303030"/><path d="M353.13 1291.16h143.35c1.65 0 3-1.34 3-3v-42.57c0-1.66 1.34-3 3-3h125.84" stroke="#303030" stroke-width="2" fill="none"/><path d="M353.16 1292.16h-1.1l.07-.97-.03-1.04h1.06z" fill="#303030"/><path d="M643.6 1242.6l-14.28 4.63v-9.27z" stroke="#303030" stroke-width="2" fill="#303030"/><path d="M353.13 920.22h143.35c1.65 0 3 1.34 3 3v74.8c0 1.66 1.34 3 3 3h125.84" stroke="#303030" stroke-width="2" fill="none"/><path d="M353.16 921.22h-1.1l.07-.98-.03-1.02h1.06z" fill="#303030"/><path d="M643.6 1001.03l-14.28 4.63v-9.27z" stroke="#303030" stroke-width="2" fill="#303030"/><path d="M353.13 1040.97h143.35c1.65 0 3-1.34 3-3v-33.94c0-1.66 1.34-3 3-3h125.84" stroke="#303030" stroke-width="2" fill="none"/><path d="M353.16 1041.97h-1.1l.07-.97-.03-1.03h1.06z" fill="#303030"/><path d="M643.6 1001.03l-14.28 4.63v-9.27z" stroke="#303030" stroke-width="2" fill="#303030"/><path d="M840.56 1242.6H1024.4M840.58 1242.6h-4.02" stroke="#303030" stroke-width="2" fill="none"/><path d="M1039.67 1242.6l-14.26 4.64v-9.27z" stroke="#303030" stroke-width="2" fill="#303030"/><path d="M840.56 1001.03H940.9c.18 0 .33-.15.33-.34 0-.2.16-.35.34-.35h82.84M840.58 1001.03h-4.02" stroke="#303030" stroke-width="2" fill="none"/><path d="M1039.67 1000.35l-14.26 4.63v-9.27z" stroke="#303030" stroke-width="2" fill="#303030"/><g><path d="M130.1 1691.58h-37c-1.67 0-3-1.34-3-3V212.75c0-1.66 1.33-3 3-3h37" fill="#3fb8b9"/><path d="M130.1 1691.58h-37c-1.67 0-3-1.34-3-3V212.75c0-1.66 1.33-3 3-3h37" stroke="#00987e" stroke-width="4" fill="none"/><path d="M130.1 1691.58h1810c1.66 0 3-1.34 3-3V212.75c0-1.66-1.34-3-3-3h-1810M130.1 1691.58V209.75M90.1 1367.17h1853M90.1 853.9h1853M90.1 540.06h1853" stroke="#00987e" stroke-width="4" fill="none"/></g><g><use xlink:href="#X" transform="matrix(6.123233995736766e-17,-1,1,6.123233995736766e-17,90.0859915603605,540.0579186544026) translate(18.899999999999977 23.6)"/><use xlink:href="#Y" transform="matrix(6.123233995736766e-17,-1,1,6.123233995736766e-17,90.0859915603605,540.0579186544026) translate(73.79999999999998 23.6)"/><use xlink:href="#Z" transform="matrix(6.123233995736766e-17,-1,1,6.123233995736766e-17,90.0859915603605,540.0579186544026) translate(144.64999999999998 23.6)"/><use xlink:href="#aa" transform="matrix(6.123233995736766e-17,-1,1,6.123233995736766e-17,90.0859915603605,540.0579186544026) translate(211.45 23.6)"/></g><g><use xlink:href="#ab" transform="matrix(6.123233995736766e-17,-1,1,6.123233995736766e-17,90.08599156036048,853.9118397088002) translate(91.1 23.6)"/></g><g><use xlink:href="#ac" transform="matrix(6.123233995736766e-17,-1,1,6.123233995736766e-17,90.08599156036044,1367.1678182301357) translate(115.775 23.6)"/><use xlink:href="#ad" transform="matrix(6.123233995736766e-17,-1,1,6.123233995736766e-17,90.08599156036044,1367.1678182301357) translate(138.72500000000002 23.6)"/><use xlink:href="#ae" transform="matrix(6.123233995736766e-17,-1,1,6.123233995736766e-17,90.08599156036044,1367.1678182301357) translate(208.57500000000002 23.6)"/><use xlink:href="#af" transform="matrix(6.123233995736766e-17,-1,1,6.123233995736766e-17,90.08599156036044,1367.1678182301357) translate(260.525 23.6)"/><use xlink:href="#ag" transform="matrix(6.123233995736766e-17,-1,1,6.123233995736766e-17,90.08599156036044,1367.1678182301357) translate(306.475 23.6)"/></g><g><use xlink:href="#X" transform="matrix(6.123233995736766e-17,-1,1,6.123233995736766e-17,90.08599156036043,1691.580520861015) translate(39.94999999999999 23.6)"/><use xlink:href="#ah" transform="matrix(6.123233995736766e-17,-1,1,6.123233995736766e-17,90.08599156036043,1691.580520861015) translate(94.85 23.6)"/><use xlink:href="#Z" transform="matrix(6.123233995736766e-17,-1,1,6.123233995736766e-17,90.08599156036043,1691.580520861015) translate(164.4 23.6)"/><use xlink:href="#ai" transform="matrix(6.123233995736766e-17,-1,1,6.123233995736766e-17,90.08599156036043,1691.580520861015) translate(231.20000000000002 23.6)"/></g><path d="M294 1373.9c18.2 0 32.96 19.46 32.96 43.48 0 24.03-14.76 43.5-32.95 43.5h-98.84c-18.2 0-32.95-19.47-32.95-43.5 0-24.02 14.76-43.5 32.96-43.5z" stroke="#00987e" stroke-width="4" fill="#95d6cb"/><g><use xlink:href="#b" transform="matrix(1,0,0,1,167.7673513154398,1379.4482617021156) translate(18.075 43.454)"/><use xlink:href="#R" transform="matrix(1,0,0,1,167.7673513154398,1379.4482617021156) translate(80.025 43.454)"/></g><path d="M505.16 1478.5c28.15 0 50.98 19.48 50.98 43.5 0 24.03-22.83 43.5-50.98 43.5H352.22c-28.16 0-50.98-19.47-50.98-43.5 0-24.02 22.82-43.5 50.98-43.5z" stroke="#00987e" stroke-width="4" fill="#95d6cb"/><g><use xlink:href="#H" transform="matrix(1,0,0,1,306.80136672867394,1484.066235386915) translate(23.174999999999994 32.653999999999996)"/><use xlink:href="#I" transform="matrix(1,0,0,1,306.80136672867394,1484.066235386915) translate(78.075 32.653999999999996)"/><use xlink:href="#aj" transform="matrix(1,0,0,1,306.80136672867394,1484.066235386915) translate(138.97500000000002 32.653999999999996)"/><use xlink:href="#ak" transform="matrix(1,0,0,1,306.80136672867394,1484.066235386915) translate(158.97500000000002 32.653999999999996)"/><use xlink:href="#al" transform="matrix(1,0,0,1,306.80136672867394,1484.066235386915) translate(56.69999999999999 54.254)"/><use xlink:href="#am" transform="matrix(1,0,0,1,306.80136672867394,1484.066235386915) translate(134.4 54.254)"/></g><path d="M505.16 1583.12c28.15 0 50.98 19.48 50.98 43.5s-22.83 43.5-50.98 43.5H352.22c-28.16 0-50.98-19.48-50.98-43.5s22.82-43.5 50.98-43.5z" stroke="#00987e" stroke-width="4" fill="#95d6cb"/><g><use xlink:href="#H" transform="matrix(1,0,0,1,306.80136672867394,1588.6842090717143) translate(23.174999999999994 32.653999999999996)"/><use xlink:href="#I" transform="matrix(1,0,0,1,306.80136672867394,1588.6842090717143) translate(78.075 32.653999999999996)"/><use xlink:href="#an" transform="matrix(1,0,0,1,306.80136672867394,1588.6842090717143) translate(138.97500000000002 32.653999999999996)"/><use xlink:href="#ak" transform="matrix(1,0,0,1,306.80136672867394,1588.6842090717143) translate(158.97500000000002 32.653999999999996)"/><use xlink:href="#al" transform="matrix(1,0,0,1,306.80136672867394,1588.6842090717143) translate(56.69999999999999 54.254)"/><use xlink:href="#am" transform="matrix(1,0,0,1,306.80136672867394,1588.6842090717143) translate(134.4 54.254)"/></g><path d="M213.68 1463.88v60.8c0 1.65 1.34 3 3 3h71.57" stroke="#303030" stroke-width="2" fill="none"/><path d="M214.68 1463.9h-2v-1.02h2z" fill="#303030"/><path d="M303.5 1527.67l-14.25 4.64v-9.26z" stroke="#303030" stroke-width="2" fill="#303030"/><path d="M215.04 1461.88v161.74c0 1.66 1.34 3 3 3h62.7M215.04 1461.9v-1.02" stroke="#303030" stroke-width="2" fill="none"/><path d="M296 1626.62l-14.26 4.64V1622z" stroke="#303030" stroke-width="2" fill="#303030"/><path d="M680.64 1513.77v106.57c0 1.66 1.34 3 3 3h217.8" stroke="#303030" stroke-width="2" fill="none"/><path d="M681.1 1512.87l.54-.22v1.14h-2v-1.26z" fill="#303030"/><path d="M916.7 1623.34l-14.26 4.64v-9.27z" stroke="#303030" stroke-width="2" fill="#303030"/><g><use xlink:href="#ao" transform="matrix(1,0,0,1,717.5284107922699,1627.3427638640605) translate(0 14.4)"/></g><path d="M904.5 1576.13c-.43-1.6.56-2.9 2.22-2.9h156.2c1.66 0 2.66 1.3 2.23 2.9l-25.17 94.42c-.43 1.6-2.12 2.9-3.78 2.9H933.45c-1.66 0-3.35-1.3-3.78-2.9z" stroke="#00987e" stroke-width="4" fill="#c92d39"/><path d="M1081.93 1573.23c0 8.84-7.17 16-16 16-8.84 0-16-7.16-16-16 0-8.83 7.16-16 16-16 8.83 0 16 7.17 16 16z" fill="#cb2b35"/><path d="M1066.34 1570.82l-4.58-4.6-2.83 2.84 4.58 4.6-4.57 4.57 2.83 2.83 4.58-4.58 4.6 4.58 2.82-2.83-4.6-4.58 4.6-4.6-2.83-2.82-4.6 4.6z" fill="#fff"/><g><use xlink:href="#ap" transform="matrix(1,0,0,1,908.7211001859978,1578.2337368466099) translate(22.59999999999999 40.153999999999996)"/><use xlink:href="#aq" transform="matrix(1,0,0,1,908.7211001859978,1578.2337368466099) translate(94.5 40.153999999999996)"/><use xlink:href="#ar" transform="matrix(1,0,0,1,908.7211001859978,1578.2337368466099) translate(24.549999999999994 61.754)"/><use xlink:href="#as" transform="matrix(1,0,0,1,908.7211001859978,1578.2337368466099) translate(91.5 61.754)"/></g><path d="M559.14 1522h21.97c1.67 0 3-1.34 3-3v-64.86c0-1.65 1.35-3 3-3h4.48" stroke="#303030" stroke-width="2" fill="none"/><path d="M559.16 1523h-1.07l.04-1.06-.05-.94h1.06z" fill="#303030"/><path d="M606.84 1451.14l-14.26 4.64v-9.27z" stroke="#303030" stroke-width="2" fill="#303030"/><path d="M559.14 1626.62h47.48c1.65 0 3-1.34 3-3v-153.97" stroke="#303030" stroke-width="2" fill="none"/><path d="M559.16 1627.62h-1.07l.04-1.06-.05-.94h1.06z" fill="#303030"/><path d="M609.62 1454.38l4.63 14.27h-9.27z" stroke="#303030" stroke-width="2" fill="#303030"/><path d="M1175.54 1306.4v34.6c0 1.65-1.34 3-3 3H350.96c-1.66 0-3 1.34-3 3v69.9c0 .26-.23.48-.5.48" stroke="#303030" stroke-width="2" fill="none"/><path d="M1176.54 1306.42h-2v-1.02h2z" fill="#303030"/><path d="M332.2 1417.38l14.26-4.63v9.27z" stroke="#303030" stroke-width="2" fill="#303030"/><path d="M1305.6 1001.12h23.8c1.67 0 3 1.34 3 3v313.7c0 1.66-1.33 3-3 3H350.97c-1.66 0-3 1.35-3 3v93.07c0 .26-.23.48-.5.48M1305.64 1001.12h-1.03" stroke="#303030" stroke-width="2" fill="none"/><path d="M332.2 1417.38l14.26-4.63v9.27z" stroke="#303030" stroke-width="2" fill="#303030"/><defs><path fill="#303030" d="M185-189c-5-48-123-54-124 2 14 75 158 14 163 119 3 78-121 87-175 55-17-10-28-26-33-46l33-7c5 56 141 63 141-1 0-78-155-14-162-118-5-82 145-84 179-34 5 7 8 16 11 25" id="at"/><path fill="#303030" d="M59-47c-2 24 18 29 38 22v24C64 9 27 4 27-40v-127H5v-23h24l9-43h21v43h35v23H59v120" id="au"/><path fill="#303030" d="M100-194c63 0 86 42 84 106H49c0 40 14 67 53 68 26 1 43-12 49-29l28 8c-11 28-37 45-77 45C44 4 14-33 15-96c1-61 26-98 85-98zm52 81c6-60-76-77-97-28-3 7-6 17-6 28h103" id="av"/><path fill="#303030" d="M210-169c-67 3-38 105-44 169h-31v-121c0-29-5-50-35-48C34-165 62-65 56 0H25l-1-190h30c1 10-1 24 2 32 10-44 99-50 107 0 11-21 27-35 58-36 85-2 47 119 55 194h-31v-121c0-29-5-49-35-48" id="aw"/><path fill="#303030" d="M24-231v-30h32v30H24zM24 0v-190h32V0H24" id="ax"/><path fill="#303030" d="M117-194c89-4 53 116 60 194h-32v-121c0-31-8-49-39-48C34-167 62-67 57 0H25l-1-190h30c1 10-1 24 2 32 11-22 29-35 61-36" id="ay"/><path fill="#303030" d="M177-190C167-65 218 103 67 71c-23-6-38-20-44-43l32-5c15 47 100 32 89-28v-30C133-14 115 1 83 1 29 1 15-40 15-95c0-56 16-97 71-98 29-1 48 16 59 35 1-10 0-23 2-32h30zM94-22c36 0 50-32 50-73 0-42-14-75-50-75-39 0-46 34-46 75s6 73 46 73" id="az"/><g id="a"><use transform="matrix(0.05,0,0,0.05,0,0)" xlink:href="#at"/><use transform="matrix(0.05,0,0,0.05,12,0)" xlink:href="#au"/><use transform="matrix(0.05,0,0,0.05,17,0)" xlink:href="#av"/><use transform="matrix(0.05,0,0,0.05,27,0)" xlink:href="#aw"/><use transform="matrix(0.05,0,0,0.05,41.95,0)" xlink:href="#aw"/><use transform="matrix(0.05,0,0,0.05,56.900000000000006,0)" xlink:href="#ax"/><use transform="matrix(0.05,0,0,0.05,60.85,0)" xlink:href="#ay"/><use transform="matrix(0.05,0,0,0.05,70.85000000000001,0)" xlink:href="#az"/></g><path fill="#303030" d="M100-194c62-1 85 37 85 99 1 63-27 99-86 99S16-35 15-95c0-66 28-99 85-99zM99-20c44 1 53-31 53-75 0-43-8-75-51-75s-53 32-53 75 10 74 51 75" id="aA"/><path fill="#303030" d="M84 4C-5 8 30-112 23-190h32v120c0 31 7 50 39 49 72-2 45-101 50-169h31l1 190h-30c-1-10 1-25-2-33-11 22-28 36-60 37" id="aB"/><path fill="#303030" d="M114-163C36-179 61-72 57 0H25l-1-190h30c1 12-1 29 2 39 6-27 23-49 58-41v29" id="aC"/><path fill="#303030" d="M96-169c-40 0-48 33-48 73s9 75 48 75c24 0 41-14 43-38l32 2c-6 37-31 61-74 61-59 0-76-41-82-99-10-93 101-131 147-64 4 7 5 14 7 22l-32 3c-4-21-16-35-41-35" id="aD"/><g id="b"><use transform="matrix(0.05,0,0,0.05,0,0)" xlink:href="#at"/><use transform="matrix(0.05,0,0,0.05,12,0)" xlink:href="#aA"/><use transform="matrix(0.05,0,0,0.05,22,0)" xlink:href="#aB"/><use transform="matrix(0.05,0,0,0.05,32,0)" xlink:href="#aC"/><use transform="matrix(0.05,0,0,0.05,37.95,0)" xlink:href="#aD"/><use transform="matrix(0.05,0,0,0.05,46.95,0)" xlink:href="#av"/></g><path fill="#303030" d="M205 0l-28-72H64L36 0H1l101-248h38L239 0h-34zm-38-99l-47-123c-12 45-31 82-46 123h93" id="aE"/><path fill="#303030" d="M101-234c-31-9-42 10-38 44h38v23H63V0H32v-167H5v-23h27c-7-52 17-82 69-68v24" id="aF"/><path fill="#303030" d="M141-36C126-15 110 5 73 4 37 3 15-17 15-53c-1-64 63-63 125-63 3-35-9-54-41-54-24 1-41 7-42 31l-33-3c5-37 33-52 76-52 45 0 72 20 72 64v82c-1 20 7 32 28 27v20c-31 9-61-2-59-35zM48-53c0 20 12 33 32 33 41-3 63-29 60-74-43 2-92-5-92 41" id="aG"/><g id="c"><use transform="matrix(0.05,0,0,0.05,0,0)" xlink:href="#aE"/><use transform="matrix(0.05,0,0,0.05,12,0)" xlink:href="#aC"/><use transform="matrix(0.05,0,0,0.05,17.95,0)" xlink:href="#ax"/><use transform="matrix(0.05,0,0,0.05,21.9,0)" xlink:href="#au"/><use transform="matrix(0.05,0,0,0.05,26.899999999999995,0)" xlink:href="#ax"/><use transform="matrix(0.05,0,0,0.05,30.849999999999994,0)" xlink:href="#aF"/><use transform="matrix(0.05,0,0,0.05,35.849999999999994,0)" xlink:href="#aG"/><use transform="matrix(0.05,0,0,0.05,45.849999999999994,0)" xlink:href="#aD"/><use transform="matrix(0.05,0,0,0.05,54.849999999999994,0)" xlink:href="#au"/></g><path fill="#303030" d="M27 0v-27h64v-190l-56 39v-29l58-41h29v221h61V0H27" id="aH"/><use transform="matrix(0.05,0,0,0.05,0,0)" xlink:href="#aH" id="d"/><path fill="#303030" d="M87 75C49 33 22-17 22-94c0-76 28-126 65-167h31c-38 41-64 92-64 168S80 34 118 75H87" id="aI"/><path fill="#303030" d="M33 0v-38h34V0H33" id="aJ"/><g id="e"><use transform="matrix(0.05,0,0,0.05,0,0)" xlink:href="#aI"/><use transform="matrix(0.05,0,0,0.05,5.95,0)" xlink:href="#av"/><use transform="matrix(0.05,0,0,0.05,15.949999999999998,0)" xlink:href="#az"/><use transform="matrix(0.05,0,0,0.05,25.950000000000003,0)" xlink:href="#aJ"/></g><path fill="#303030" d="M232-93c-1 65-40 97-104 97C67 4 28-28 28-90v-158h33c8 89-33 224 67 224 102 0 64-133 71-224h33v155" id="aK"/><path fill="#303030" d="M135-143c-3-34-86-38-87 0 15 53 115 12 119 90S17 21 10-45l28-5c4 36 97 45 98 0-10-56-113-15-118-90-4-57 82-63 122-42 12 7 21 19 24 35" id="aL"/><g id="f"><use transform="matrix(0.05,0,0,0.05,0,0)" xlink:href="#aK"/><use transform="matrix(0.05,0,0,0.05,12.950000000000001,0)" xlink:href="#aL"/><use transform="matrix(0.05,0,0,0.05,21.950000000000003,0)" xlink:href="#av"/></g><path fill="#303030" d="M212-179c-10-28-35-45-73-45-59 0-87 40-87 99 0 60 29 101 89 101 43 0 62-24 78-52l27 14C228-24 195 4 139 4 59 4 22-46 18-125c-6-104 99-153 187-111 19 9 31 26 39 46" id="aM"/><path fill="#303030" d="M33-261c38 41 65 92 65 168S71 34 33 75H2C39 34 66-17 66-93S39-220 2-261h31" id="aN"/><g id="g"><use transform="matrix(0.05,0,0,0.05,0,0)" xlink:href="#aM"/><use transform="matrix(0.05,0,0,0.05,12.950000000000001,0)" xlink:href="#aG"/><use transform="matrix(0.05,0,0,0.05,22.950000000000003,0)" xlink:href="#aL"/><use transform="matrix(0.05,0,0,0.05,31.950000000000003,0)" xlink:href="#av"/><use transform="matrix(0.05,0,0,0.05,41.95,0)" xlink:href="#aN"/></g><g id="h"><use transform="matrix(0.05,0,0,0.05,0,0)" xlink:href="#aE"/><use transform="matrix(0.05,0,0,0.05,12,0)" xlink:href="#aC"/><use transform="matrix(0.05,0,0,0.05,17.95,0)" xlink:href="#au"/><use transform="matrix(0.05,0,0,0.05,22.95,0)" xlink:href="#ax"/><use transform="matrix(0.05,0,0,0.05,26.899999999999995,0)" xlink:href="#aF"/><use transform="matrix(0.05,0,0,0.05,31.899999999999995,0)" xlink:href="#aG"/><use transform="matrix(0.05,0,0,0.05,41.9,0)" xlink:href="#aD"/><use transform="matrix(0.05,0,0,0.05,50.9,0)" xlink:href="#au"/></g><path fill="#303030" d="M233-177c-1 41-23 64-60 70L243 0h-38l-65-103H63V0H30v-248c88 3 205-21 203 71zM63-129c60-2 137 13 137-47 0-61-80-42-137-45v92" id="aO"/><path fill="#303030" d="M108 0H70L1-190h34L89-25l56-165h34" id="aP"/><g id="i"><use transform="matrix(0.05,0,0,0.05,0,0)" xlink:href="#aO"/><use transform="matrix(0.05,0,0,0.05,12.950000000000001,0)" xlink:href="#av"/><use transform="matrix(0.05,0,0,0.05,22.950000000000003,0)" xlink:href="#aw"/><use transform="matrix(0.05,0,0,0.05,37.900000000000006,0)" xlink:href="#aA"/><use transform="matrix(0.05,0,0,0.05,47.900000000000006,0)" xlink:href="#aP"/><use transform="matrix(0.05,0,0,0.05,56.900000000000006,0)" xlink:href="#av"/></g><path fill="#303030" d="M115-194c55 1 70 41 70 98S169 2 115 4C84 4 66-9 55-30l1 105H24l-1-265h31l2 30c10-21 28-34 59-34zm-8 174c40 0 45-34 45-75s-6-73-45-74c-42 0-51 32-51 76 0 43 10 73 51 73" id="aQ"/><path fill="#303030" d="M206 0h-36l-40-164L89 0H53L-1-190h32L70-26l43-164h34l41 164 42-164h31" id="aR"/><path fill="#303030" d="M85-194c31 0 48 13 60 33l-1-100h32l1 261h-30c-2-10 0-23-3-31C134-8 116 4 85 4 32 4 16-35 15-94c0-66 23-100 70-100zm9 24c-40 0-46 34-46 75 0 40 6 74 45 74 42 0 51-32 51-76 0-42-9-74-50-73" id="aS"/><g id="j"><use transform="matrix(0.05,0,0,0.05,0,0)" xlink:href="#at"/><use transform="matrix(0.05,0,0,0.05,12,0)" xlink:href="#au"/><use transform="matrix(0.05,0,0,0.05,17,0)" xlink:href="#aA"/><use transform="matrix(0.05,0,0,0.05,27,0)" xlink:href="#aQ"/><use transform="matrix(0.05,0,0,0.05,37,0)" xlink:href="#aR"/><use transform="matrix(0.05,0,0,0.05,49.95,0)" xlink:href="#aA"/><use transform="matrix(0.05,0,0,0.05,59.95,0)" xlink:href="#aC"/><use transform="matrix(0.05,0,0,0.05,65.9,0)" xlink:href="#aS"/><use transform="matrix(0.05,0,0,0.05,75.9,0)" xlink:href="#aL"/></g><path fill="#303030" d="M106-169C34-169 62-67 57 0H25v-261h32l-1 103c12-21 28-36 61-36 89 0 53 116 60 194h-32v-121c2-32-8-49-39-48" id="aT"/><path fill="#303030" d="M143 0L79-87 56-68V0H24v-261h32v163l83-92h37l-77 82L181 0h-38" id="aU"/><g id="k"><use transform="matrix(0.05,0,0,0.05,0,0)" xlink:href="#aM"/><use transform="matrix(0.05,0,0,0.05,12.950000000000001,0)" xlink:href="#aT"/><use transform="matrix(0.05,0,0,0.05,22.950000000000003,0)" xlink:href="#av"/><use transform="matrix(0.05,0,0,0.05,32.95,0)" xlink:href="#aD"/><use transform="matrix(0.05,0,0,0.05,41.95,0)" xlink:href="#aU"/></g><g id="l"><use transform="matrix(0.05,0,0,0.05,0,0)" xlink:href="#ax"/><use transform="matrix(0.05,0,0,0.05,3.95,0)" xlink:href="#aL"/></g><path fill="#303030" d="M137 0h-34L2-248h35l83 218 83-218h36" id="aV"/><path fill="#303030" d="M24 0v-261h32V0H24" id="aW"/><g id="m"><use transform="matrix(0.05,0,0,0.05,0,0)" xlink:href="#aV"/><use transform="matrix(0.05,0,0,0.05,10.65,0)" xlink:href="#aG"/><use transform="matrix(0.05,0,0,0.05,20.65,0)" xlink:href="#aW"/><use transform="matrix(0.05,0,0,0.05,24.599999999999998,0)" xlink:href="#ax"/><use transform="matrix(0.05,0,0,0.05,28.549999999999997,0)" xlink:href="#aS"/></g><path fill="#303030" d="M103-251c84 0 111 97 45 133-19 10-37 24-39 52H78c0-63 77-55 77-114 0-30-21-42-52-43-32 0-53 17-56 46l-32-2c7-45 34-72 88-72zM77 0v-35h34V0H77" id="aX"/><use transform="matrix(0.05,0,0,0.05,0,0)" xlink:href="#aX" id="n"/><path fill="#303030" d="M140-251c81 0 123 46 123 126C263-46 219 4 140 4 59 4 17-45 17-125s42-126 123-126zm0 227c63 0 89-41 89-101s-29-99-89-99c-61 0-89 39-89 99S79-25 140-24" id="aY"/><path fill="#303030" d="M194 0L95-120 63-95V0H30v-248h33v124l119-124h40L117-140 236 0h-42" id="aZ"/><g id="o"><use transform="matrix(0.05,0,0,0.05,0,0)" xlink:href="#aY"/><use transform="matrix(0.05,0,0,0.05,14,0)" xlink:href="#aZ"/></g><g id="p"><use transform="matrix(0.05,0,0,0.05,0,0)" xlink:href="#aM"/><use transform="matrix(0.05,0,0,0.05,12.950000000000001,0)" xlink:href="#aC"/><use transform="matrix(0.05,0,0,0.05,18.900000000000002,0)" xlink:href="#av"/><use transform="matrix(0.05,0,0,0.05,28.900000000000002,0)" xlink:href="#aG"/><use transform="matrix(0.05,0,0,0.05,38.900000000000006,0)" xlink:href="#au"/><use transform="matrix(0.05,0,0,0.05,43.900000000000006,0)" xlink:href="#av"/></g><path fill="#303030" d="M127-220V0H93v-220H8v-28h204v28h-85" id="ba"/><path fill="#303030" d="M16-82v-28h88v28H16" id="bb"/><path fill="#303030" d="M115-194c53 0 69 39 70 98 0 66-23 100-70 100C84 3 66-7 56-30L54 0H23l1-261h32v101c10-23 28-34 59-34zm-8 174c40 0 45-34 45-75 0-40-5-75-45-74-42 0-51 32-51 76 0 43 10 73 51 73" id="bc"/><path fill="#303030" d="M179-190L93 31C79 59 56 82 12 73V49c39 6 53-20 64-50L1-190h34L92-34l54-156h33" id="bd"/><path fill="#303030" d="M30-248c118-7 216 8 213 122C240-48 200 0 122 0H30v-248zM63-27c89 8 146-16 146-99s-60-101-146-95v194" id="be"/><g id="q"><use transform="matrix(0.05,0,0,0.05,0,0)" xlink:href="#ba"/><use transform="matrix(0.05,0,0,0.05,8.950000000000001,0)" xlink:href="#av"/><use transform="matrix(0.05,0,0,0.05,18.950000000000003,0)" xlink:href="#aC"/><use transform="matrix(0.05,0,0,0.05,24.900000000000002,0)" xlink:href="#aw"/><use transform="matrix(0.05,0,0,0.05,39.85,0)" xlink:href="#aL"/><use transform="matrix(0.05,0,0,0.05,48.85,0)" xlink:href="#bb"/><use transform="matrix(0.05,0,0,0.05,54.800000000000004,0)" xlink:href="#bc"/><use transform="matrix(0.05,0,0,0.05,64.80000000000001,0)" xlink:href="#bd"/><use transform="matrix(0.05,0,0,0.05,73.80000000000001,0)" xlink:href="#bb"/><use transform="matrix(0.05,0,0,0.05,79.75000000000001,0)" xlink:href="#be"/><use transform="matrix(0.05,0,0,0.05,92.70000000000002,0)" xlink:href="#aA"/><use transform="matrix(0.05,0,0,0.05,102.7,0)" xlink:href="#aD"/><use transform="matrix(0.05,0,0,0.05,111.7,0)" xlink:href="#aB"/><use transform="matrix(0.05,0,0,0.05,121.7,0)" xlink:href="#aw"/><use transform="matrix(0.05,0,0,0.05,136.65,0)" xlink:href="#av"/><use transform="matrix(0.05,0,0,0.05,146.65,0)" xlink:href="#ay"/><use transform="matrix(0.05,0,0,0.05,156.65,0)" xlink:href="#au"/></g><path fill="#303030" d="M240 0l2-218c-23 76-54 145-80 218h-23L58-218 59 0H30v-248h44l77 211c21-75 51-140 76-211h43V0h-30" id="bf"/><path fill="#303030" d="M141 0L90-78 38 0H4l68-98-65-92h35l48 74 47-74h35l-64 92 68 98h-35" id="bg"/><g id="r"><use transform="matrix(0.05,0,0,0.05,0,0)" xlink:href="#bf"/><use transform="matrix(0.05,0,0,0.05,14.950000000000001,0)" xlink:href="#aG"/><use transform="matrix(0.05,0,0,0.05,24.950000000000003,0)" xlink:href="#au"/><use transform="matrix(0.05,0,0,0.05,29.950000000000003,0)" xlink:href="#aC"/><use transform="matrix(0.05,0,0,0.05,35.900000000000006,0)" xlink:href="#ax"/><use transform="matrix(0.05,0,0,0.05,39.85000000000001,0)" xlink:href="#bg"/></g><g id="s"><use transform="matrix(0.05,0,0,0.05,0,0)" xlink:href="#aI"/><use transform="matrix(0.05,0,0,0.05,5.95,0)" xlink:href="#aV"/><use transform="matrix(0.05,0,0,0.05,16.95,0)" xlink:href="#av"/><use transform="matrix(0.05,0,0,0.05,26.950000000000003,0)" xlink:href="#aD"/><use transform="matrix(0.05,0,0,0.05,35.95,0)" xlink:href="#aD"/><use transform="matrix(0.05,0,0,0.05,44.95,0)" xlink:href="#au"/><use transform="matrix(0.05,0,0,0.05,49.95,0)" xlink:href="#aA"/><use transform="matrix(0.05,0,0,0.05,59.95,0)" xlink:href="#aC"/></g><g id="t"><use transform="matrix(0.05,0,0,0.05,0,0)" xlink:href="#at"/><use transform="matrix(0.05,0,0,0.05,12,0)" xlink:href="#aQ"/><use transform="matrix(0.05,0,0,0.05,22,0)" xlink:href="#aG"/><use transform="matrix(0.05,0,0,0.05,32,0)" xlink:href="#aD"/><use transform="matrix(0.05,0,0,0.05,41,0)" xlink:href="#av"/></g><g id="u"><use transform="matrix(0.05,0,0,0.05,0,0)" xlink:href="#bf"/><use transform="matrix(0.05,0,0,0.05,14.950000000000001,0)" xlink:href="#aA"/><use transform="matrix(0.05,0,0,0.05,24.950000000000003,0)" xlink:href="#aS"/><use transform="matrix(0.05,0,0,0.05,34.95,0)" xlink:href="#av"/><use transform="matrix(0.05,0,0,0.05,44.95,0)" xlink:href="#aW"/><use transform="matrix(0.05,0,0,0.05,48.900000000000006,0)" xlink:href="#aN"/></g><g id="v"><use transform="matrix(0.05,0,0,0.05,0,0)" xlink:href="#at"/><use transform="matrix(0.05,0,0,0.05,12,0)" xlink:href="#aG"/><use transform="matrix(0.05,0,0,0.05,22,0)" xlink:href="#aP"/><use transform="matrix(0.05,0,0,0.05,31,0)" xlink:href="#av"/></g><g id="w"><use transform="matrix(0.05,0,0,0.05,0,0)" xlink:href="#ba"/><use transform="matrix(0.05,0,0,0.05,8.950000000000001,0)" xlink:href="#aA"/></g><g id="x"><use transform="matrix(0.05,0,0,0.05,0,0)" xlink:href="#aV"/><use transform="matrix(0.05,0,0,0.05,11,0)" xlink:href="#av"/><use transform="matrix(0.05,0,0,0.05,21,0)" xlink:href="#aC"/><use transform="matrix(0.05,0,0,0.05,26.950000000000003,0)" xlink:href="#ax"/><use transform="matrix(0.05,0,0,0.05,30.899999999999995,0)" xlink:href="#aF"/><use transform="matrix(0.05,0,0,0.05,35.9,0)" xlink:href="#ax"/><use transform="matrix(0.05,0,0,0.05,39.85,0)" xlink:href="#av"/><use transform="matrix(0.05,0,0,0.05,49.85,0)" xlink:href="#aS"/></g><g id="y"><use transform="matrix(0.05,0,0,0.05,0,0)" xlink:href="#aO"/><use transform="matrix(0.05,0,0,0.05,12.950000000000001,0)" xlink:href="#aG"/><use transform="matrix(0.05,0,0,0.05,22.950000000000003,0)" xlink:href="#ay"/><use transform="matrix(0.05,0,0,0.05,32.95,0)" xlink:href="#aU"/><use transform="matrix(0.05,0,0,0.05,41.95,0)" xlink:href="#av"/><use transform="matrix(0.05,0,0,0.05,51.95,0)" xlink:href="#aS"/></g><path fill="#303030" d="M30 0v-248h33v221h125V0H30" id="bh"/><g id="z"><use transform="matrix(0.05,0,0,0.05,0,0)" xlink:href="#bh"/><use transform="matrix(0.05,0,0,0.05,10,0)" xlink:href="#ax"/><use transform="matrix(0.05,0,0,0.05,13.949999999999998,0)" xlink:href="#aL"/><use transform="matrix(0.05,0,0,0.05,22.95,0)" xlink:href="#au"/><use transform="matrix(0.05,0,0,0.05,27.950000000000003,0)" xlink:href="#aL"/></g><path fill="#303030" d="M186 0v-106H76V0H24v-248h52v99h110v-99h50V0h-50" id="bi"/><path fill="#303030" d="M25-224v-37h50v37H25zM25 0v-190h50V0H25" id="bj"/><path fill="#303030" d="M185-48c-13 30-37 53-82 52C43 2 14-33 14-96s30-98 90-98c62 0 83 45 84 108H66c0 31 8 55 39 56 18 0 30-7 34-22zm-45-69c5-46-57-63-70-21-2 6-4 13-4 21h74" id="bk"/><path fill="#303030" d="M135-150c-39-12-60 13-60 57V0H25l-1-190h47c2 13-1 29 3 40 6-28 27-53 61-41v41" id="bl"/><path fill="#303030" d="M133-34C117-15 103 5 69 4 32 3 11-16 11-54c-1-60 55-63 116-61 1-26-3-47-28-47-18 1-26 9-28 27l-52-2c7-38 36-58 82-57s74 22 75 68l1 82c-1 14 12 18 25 15v27c-30 8-71 5-69-32zm-48 3c29 0 43-24 42-57-32 0-66-3-65 30 0 17 8 27 23 27" id="bm"/><path fill="#303030" d="M190-63c-7 42-38 67-86 67-59 0-84-38-90-98-12-110 154-137 174-36l-49 2c-2-19-15-32-35-32-30 0-35 28-38 64-6 74 65 87 74 30" id="bn"/><path fill="#303030" d="M114-157C55-157 80-60 75 0H25v-261h50l-1 109c12-26 28-41 61-42 86-1 58 113 63 194h-50c-7-57 23-157-34-157" id="bo"/><path fill="#303030" d="M25 0v-261h50V0H25" id="bp"/><g id="A"><use transform="matrix(0.05,0,0,0.05,0,0)" xlink:href="#bi"/><use transform="matrix(0.05,0,0,0.05,12.950000000000001,0)" xlink:href="#bj"/><use transform="matrix(0.05,0,0,0.05,17.950000000000003,0)" xlink:href="#bk"/><use transform="matrix(0.05,0,0,0.05,27.950000000000003,0)" xlink:href="#bl"/><use transform="matrix(0.05,0,0,0.05,34.95,0)" xlink:href="#bm"/><use transform="matrix(0.05,0,0,0.05,44.95,0)" xlink:href="#bl"/><use transform="matrix(0.05,0,0,0.05,51.95,0)" xlink:href="#bn"/><use transform="matrix(0.05,0,0,0.05,61.95,0)" xlink:href="#bo"/><use transform="matrix(0.05,0,0,0.05,72.9,0)" xlink:href="#bj"/><use transform="matrix(0.05,0,0,0.05,77.9,0)" xlink:href="#bn"/><use transform="matrix(0.05,0,0,0.05,87.9,0)" xlink:href="#bm"/><use transform="matrix(0.05,0,0,0.05,97.9,0)" xlink:href="#bp"/></g><path fill="#303030" d="M136-208V0H84v-208H4v-40h212v40h-80" id="bq"/><path fill="#303030" d="M135-194c87-1 58 113 63 194h-50c-7-57 23-157-34-157-59 0-34 97-39 157H25l-1-190h47c2 12-1 28 3 38 12-26 28-41 61-42" id="br"/><path fill="#303030" d="M195-6C206 82 75 100 31 46c-4-6-6-13-8-21l49-6c3 16 16 24 34 25 40 0 42-37 40-79-11 22-30 35-61 35-53 0-70-43-70-97 0-56 18-96 73-97 30 0 46 14 59 34l2-30h47zm-90-29c32 0 41-27 41-63 0-35-9-62-40-62-32 0-39 29-40 63 0 36 9 62 39 62" id="bs"/><g id="B"><use transform="matrix(0.05,0,0,0.05,0,0)" xlink:href="#bq"/><use transform="matrix(0.05,0,0,0.05,9.950000000000001,0)" xlink:href="#bl"/><use transform="matrix(0.05,0,0,0.05,16.950000000000003,0)" xlink:href="#bm"/><use transform="matrix(0.05,0,0,0.05,26.950000000000003,0)" xlink:href="#bn"/><use transform="matrix(0.05,0,0,0.05,36.95,0)" xlink:href="#bj"/><use transform="matrix(0.05,0,0,0.05,41.95,0)" xlink:href="#br"/><use transform="matrix(0.05,0,0,0.05,52.900000000000006,0)" xlink:href="#bs"/></g><g id="C"><use transform="matrix(0.05,0,0,0.05,0,0)" xlink:href="#aM"/><use transform="matrix(0.05,0,0,0.05,12.950000000000001,0)" xlink:href="#aA"/><use transform="matrix(0.05,0,0,0.05,22.950000000000003,0)" xlink:href="#aw"/><use transform="matrix(0.05,0,0,0.05,37.900000000000006,0)" xlink:href="#aQ"/><use transform="matrix(0.05,0,0,0.05,47.900000000000006,0)" xlink:href="#aB"/><use transform="matrix(0.05,0,0,0.05,57.900000000000006,0)" xlink:href="#au"/><use transform="matrix(0.05,0,0,0.05,62.900000000000006,0)" xlink:href="#av"/></g><g id="D"><use transform="matrix(0.05,0,0,0.05,0,0)" xlink:href="#aM"/><use transform="matrix(0.05,0,0,0.05,12.950000000000001,0)" xlink:href="#aA"/><use transform="matrix(0.05,0,0,0.05,22.950000000000003,0)" xlink:href="#aL"/><use transform="matrix(0.05,0,0,0.05,31.950000000000003,0)" xlink:href="#ax"/><use transform="matrix(0.05,0,0,0.05,35.900000000000006,0)" xlink:href="#ay"/><use transform="matrix(0.05,0,0,0.05,45.900000000000006,0)" xlink:href="#av"/></g><g id="E"><use transform="matrix(0.05,0,0,0.05,0,0)" xlink:href="#at"/><use transform="matrix(0.05,0,0,0.05,12,0)" xlink:href="#ax"/><use transform="matrix(0.05,0,0,0.05,15.949999999999998,0)" xlink:href="#aw"/><use transform="matrix(0.05,0,0,0.05,30.899999999999995,0)" xlink:href="#ax"/><use transform="matrix(0.05,0,0,0.05,34.85,0)" xlink:href="#aW"/><use transform="matrix(0.05,0,0,0.05,38.800000000000004,0)" xlink:href="#aG"/><use transform="matrix(0.05,0,0,0.05,48.800000000000004,0)" xlink:href="#aC"/><use transform="matrix(0.05,0,0,0.05,54.75,0)" xlink:href="#ax"/><use transform="matrix(0.05,0,0,0.05,58.70000000000002,0)" xlink:href="#au"/><use transform="matrix(0.05,0,0,0.05,63.70000000000002,0)" xlink:href="#bd"/></g><g id="F"><use transform="matrix(0.05,0,0,0.05,0,0)" xlink:href="#aI"/><use transform="matrix(0.05,0,0,0.05,5.95,0)" xlink:href="#ba"/><use transform="matrix(0.05,0,0,0.05,14.9,0)" xlink:href="#av"/><use transform="matrix(0.05,0,0,0.05,24.900000000000002,0)" xlink:href="#bg"/><use transform="matrix(0.05,0,0,0.05,33.900000000000006,0)" xlink:href="#au"/><use transform="matrix(0.05,0,0,0.05,38.900000000000006,0)" xlink:href="#aB"/><use transform="matrix(0.05,0,0,0.05,48.900000000000006,0)" xlink:href="#aG"/><use transform="matrix(0.05,0,0,0.05,58.900000000000006,0)" xlink:href="#aW"/></g><g id="G"><use transform="matrix(0.05,0,0,0.05,0,0)" xlink:href="#at"/><use transform="matrix(0.05,0,0,0.05,12,0)" xlink:href="#ax"/><use transform="matrix(0.05,0,0,0.05,15.949999999999998,0)" xlink:href="#aw"/><use transform="matrix(0.05,0,0,0.05,30.899999999999995,0)" xlink:href="#ax"/><use transform="matrix(0.05,0,0,0.05,34.85,0)" xlink:href="#aW"/><use transform="matrix(0.05,0,0,0.05,38.800000000000004,0)" xlink:href="#aG"/><use transform="matrix(0.05,0,0,0.05,48.800000000000004,0)" xlink:href="#aC"/><use transform="matrix(0.05,0,0,0.05,54.75,0)" xlink:href="#ax"/><use transform="matrix(0.05,0,0,0.05,58.70000000000002,0)" xlink:href="#au"/><use transform="matrix(0.05,0,0,0.05,63.70000000000002,0)" xlink:href="#bd"/><use transform="matrix(0.05,0,0,0.05,72.70000000000002,0)" xlink:href="#aN"/></g><g id="H"><use transform="matrix(0.05,0,0,0.05,0,0)" xlink:href="#ba"/><use transform="matrix(0.05,0,0,0.05,8.950000000000001,0)" xlink:href="#aG"/><use transform="matrix(0.05,0,0,0.05,18.950000000000003,0)" xlink:href="#aC"/><use transform="matrix(0.05,0,0,0.05,24.900000000000002,0)" xlink:href="#az"/><use transform="matrix(0.05,0,0,0.05,34.900000000000006,0)" xlink:href="#av"/><use transform="matrix(0.05,0,0,0.05,44.900000000000006,0)" xlink:href="#au"/></g><g id="I"><use transform="matrix(0.05,0,0,0.05,0,0)" xlink:href="#aE"/><use transform="matrix(0.05,0,0,0.05,12,0)" xlink:href="#aC"/><use transform="matrix(0.05,0,0,0.05,17.95,0)" xlink:href="#au"/><use transform="matrix(0.05,0,0,0.05,22.95,0)" xlink:href="#ax"/><use transform="matrix(0.05,0,0,0.05,26.899999999999995,0)" xlink:href="#aF"/><use transform="matrix(0.05,0,0,0.05,31.899999999999995,0)" xlink:href="#aG"/><use transform="matrix(0.05,0,0,0.05,41.9,0)" xlink:href="#aD"/><use transform="matrix(0.05,0,0,0.05,50.9,0)" xlink:href="#au"/></g><g id="J"><use transform="matrix(0.05,0,0,0.05,0,0)" xlink:href="#ba"/><use transform="matrix(0.05,0,0,0.05,8.950000000000001,0)" xlink:href="#av"/><use transform="matrix(0.05,0,0,0.05,18.950000000000003,0)" xlink:href="#aL"/><use transform="matrix(0.05,0,0,0.05,27.950000000000003,0)" xlink:href="#au"/></g><g id="K"><use transform="matrix(0.05,0,0,0.05,0,0)" xlink:href="#aM"/><use transform="matrix(0.05,0,0,0.05,12.950000000000001,0)" xlink:href="#aG"/><use transform="matrix(0.05,0,0,0.05,22.950000000000003,0)" xlink:href="#aL"/><use transform="matrix(0.05,0,0,0.05,31.950000000000003,0)" xlink:href="#av"/></g><use transform="matrix(0.05,0,0,0.05,0,0)" xlink:href="#aN" id="L"/><path fill="#303030" d="M101-251c82-7 93 87 43 132L82-64C71-53 59-42 53-27h129V0H18c2-99 128-94 128-182 0-28-16-43-45-43s-46 15-49 41l-32-3c6-41 34-60 81-64" id="bt"/><use transform="matrix(0.05,0,0,0.05,0,0)" xlink:href="#bt" id="M"/><g id="N"><use transform="matrix(0.05,0,0,0.05,0,0)" xlink:href="#at"/><use transform="matrix(0.05,0,0,0.05,12,0)" xlink:href="#aA"/><use transform="matrix(0.05,0,0,0.05,22,0)" xlink:href="#aB"/><use transform="matrix(0.05,0,0,0.05,32,0)" xlink:href="#aC"/><use transform="matrix(0.05,0,0,0.05,37.95,0)" xlink:href="#aD"/><use transform="matrix(0.05,0,0,0.05,46.95,0)" xlink:href="#av"/></g><g id="O"><use transform="matrix(0.05,0,0,0.05,0,0)" xlink:href="#aM"/><use transform="matrix(0.05,0,0,0.05,12.950000000000001,0)" xlink:href="#aA"/><use transform="matrix(0.05,0,0,0.05,22.950000000000003,0)" xlink:href="#aS"/><use transform="matrix(0.05,0,0,0.05,32.95,0)" xlink:href="#av"/></g><use transform="matrix(0.05,0,0,0.05,0,0)" xlink:href="#aH" id="P"/><use transform="matrix(0.05,0,0,0.05,0,0)" xlink:href="#bt" id="Q"/><g id="R"><use transform="matrix(0.05,0,0,0.05,0,0)" xlink:href="#aE"/><use transform="matrix(0.05,0,0,0.05,12,0)" xlink:href="#aC"/><use transform="matrix(0.05,0,0,0.05,17.95,0)" xlink:href="#au"/><use transform="matrix(0.05,0,0,0.05,22.95,0)" xlink:href="#ax"/><use transform="matrix(0.05,0,0,0.05,26.899999999999995,0)" xlink:href="#aF"/><use transform="matrix(0.05,0,0,0.05,31.899999999999995,0)" xlink:href="#aG"/><use transform="matrix(0.05,0,0,0.05,41.9,0)" xlink:href="#aD"/><use transform="matrix(0.05,0,0,0.05,50.9,0)" xlink:href="#au"/></g><path fill="#303030" d="M68-38c1 34 0 65-14 84H32c9-13 17-26 17-46H33v-38h35" id="bu"/><g id="S"><use transform="matrix(0.05,0,0,0.05,0,0)" xlink:href="#aI"/><use transform="matrix(0.05,0,0,0.05,5.95,0)" xlink:href="#ba"/><use transform="matrix(0.05,0,0,0.05,14.9,0)" xlink:href="#av"/><use transform="matrix(0.05,0,0,0.05,24.900000000000002,0)" xlink:href="#aC"/><use transform="matrix(0.05,0,0,0.05,30.85,0)" xlink:href="#aw"/><use transform="matrix(0.05,0,0,0.05,45.800000000000004,0)" xlink:href="#aL"/><use transform="matrix(0.05,0,0,0.05,54.800000000000004,0)" xlink:href="#bu"/></g><g id="T"><use transform="matrix(0.05,0,0,0.05,0,0)" xlink:href="#ba"/><use transform="matrix(0.05,0,0,0.05,8.950000000000001,0)" xlink:href="#av"/><use transform="matrix(0.05,0,0,0.05,18.950000000000003,0)" xlink:href="#aC"/><use transform="matrix(0.05,0,0,0.05,24.900000000000002,0)" xlink:href="#aw"/><use transform="matrix(0.05,0,0,0.05,39.85,0)" xlink:href="#aL"/></g><path fill="#303030" d="M33 0v-248h34V0H33" id="bv"/><g id="U"><use transform="matrix(0.05,0,0,0.05,0,0)" xlink:href="#bv"/><use transform="matrix(0.05,0,0,0.05,5,0)" xlink:href="#ay"/><use transform="matrix(0.05,0,0,0.05,15,0)" xlink:href="#aS"/><use transform="matrix(0.05,0,0,0.05,25,0)" xlink:href="#av"/><use transform="matrix(0.05,0,0,0.05,35,0)" xlink:href="#bg"/><use transform="matrix(0.05,0,0,0.05,44,0)" xlink:href="#aN"/></g><g id="V"><use transform="matrix(0.05,0,0,0.05,0,0)" xlink:href="#aI"/><use transform="matrix(0.05,0,0,0.05,5.95,0)" xlink:href="#be"/><use transform="matrix(0.05,0,0,0.05,18.900000000000002,0)" xlink:href="#aA"/><use transform="matrix(0.05,0,0,0.05,28.900000000000002,0)" xlink:href="#aD"/><use transform="matrix(0.05,0,0,0.05,37.900000000000006,0)" xlink:href="#aB"/><use transform="matrix(0.05,0,0,0.05,47.900000000000006,0)" xlink:href="#aw"/><use transform="matrix(0.05,0,0,0.05,62.85,0)" xlink:href="#av"/><use transform="matrix(0.05,0,0,0.05,72.85000000000001,0)" xlink:href="#ay"/><use transform="matrix(0.05,0,0,0.05,82.85000000000001,0)" xlink:href="#au"/></g><g id="W"><use transform="matrix(0.05,0,0,0.05,0,0)" xlink:href="#bv"/><use transform="matrix(0.05,0,0,0.05,5,0)" xlink:href="#ay"/><use transform="matrix(0.05,0,0,0.05,15,0)" xlink:href="#aS"/><use transform="matrix(0.05,0,0,0.05,25,0)" xlink:href="#av"/><use transform="matrix(0.05,0,0,0.05,35,0)" xlink:href="#bg"/><use transform="matrix(0.05,0,0,0.05,44,0)" xlink:href="#aN"/></g><path fill="#303030" d="M238-95c0 69-44 99-111 99C63 4 22-25 22-93v-155h51v151c-1 38 19 59 55 60 90 1 49-130 58-211h52v153" id="bw"/><path fill="#303030" d="M169-182c-1-43-94-46-97-3 18 66 151 10 154 114 3 95-165 93-204 36-6-8-10-19-12-30l50-8c3 46 112 56 116 5-17-69-150-10-154-114-4-87 153-88 188-35 5 8 8 18 10 28" id="bx"/><path fill="#303030" d="M24 0v-248h195v40H76v63h132v40H76v65h150V0H24" id="by"/><path fill="#303030" d="M240-174c0 40-23 61-54 70L253 0h-59l-57-94H76V0H24v-248c93 4 217-23 216 74zM76-134c48-2 112 12 112-38 0-48-66-32-112-35v73" id="bz"/><g id="X"><use transform="matrix(0.05,0,0,0.05,0,0)" xlink:href="#bw"/><use transform="matrix(0.05,0,0,0.05,12.950000000000001,0)" xlink:href="#bx"/><use transform="matrix(0.05,0,0,0.05,24.950000000000003,0)" xlink:href="#by"/><use transform="matrix(0.05,0,0,0.05,36.95,0)" xlink:href="#bz"/></g><path fill="#303030" d="M24-248c120-7 223 5 221 122C244-46 201 0 124 0H24v-248zM76-40c74 7 117-18 117-86 0-67-45-88-117-82v168" id="bA"/><path fill="#303030" d="M76-208v77h127v40H76V0H24v-248h183v40H76" id="bB"/><path fill="#303030" d="M24 0v-248h52V0H24" id="bC"/><path fill="#303030" d="M175 0L67-191c6 58 2 128 3 191H24v-248h59L193-55c-6-58-2-129-3-193h46V0h-61" id="bD"/><g id="Y"><use transform="matrix(0.05,0,0,0.05,0,0)" xlink:href="#bA"/><use transform="matrix(0.05,0,0,0.05,12.950000000000001,0)" xlink:href="#by"/><use transform="matrix(0.05,0,0,0.05,24.950000000000003,0)" xlink:href="#bB"/><use transform="matrix(0.05,0,0,0.05,35.900000000000006,0)" xlink:href="#bC"/><use transform="matrix(0.05,0,0,0.05,40.900000000000006,0)" xlink:href="#bD"/><use transform="matrix(0.05,0,0,0.05,53.85,0)" xlink:href="#by"/></g><path fill="#303030" d="M199 0l-22-63H83L61 0H9l90-248h61L250 0h-51zm-33-102l-36-108c-10 38-24 72-36 108h72" id="bE"/><path fill="#303030" d="M67-125c0 53 21 87 73 88 37 1 54-22 65-47l45 17C233-25 199 4 140 4 58 4 20-42 15-125 8-235 124-281 211-232c18 10 29 29 36 50l-46 12c-8-25-30-41-62-41-52 0-71 34-72 86" id="bF"/><g id="Z"><use transform="matrix(0.05,0,0,0.05,0,0)" xlink:href="#bq"/><use transform="matrix(0.05,0,0,0.05,10.950000000000001,0)" xlink:href="#bz"/><use transform="matrix(0.05,0,0,0.05,23.900000000000002,0)" xlink:href="#bE"/><use transform="matrix(0.05,0,0,0.05,36.85,0)" xlink:href="#bF"/><use transform="matrix(0.05,0,0,0.05,49.800000000000004,0)" xlink:href="#by"/></g><g id="aa"><use transform="matrix(0.05,0,0,0.05,0,0)" xlink:href="#bE"/><use transform="matrix(0.05,0,0,0.05,12.950000000000001,0)" xlink:href="#bz"/><use transform="matrix(0.05,0,0,0.05,25.900000000000002,0)" xlink:href="#bq"/><use transform="matrix(0.05,0,0,0.05,36.85,0)" xlink:href="#bC"/><use transform="matrix(0.05,0,0,0.05,41.85,0)" xlink:href="#bB"/><use transform="matrix(0.05,0,0,0.05,51.800000000000004,0)" xlink:href="#bE"/><use transform="matrix(0.05,0,0,0.05,64.75,0)" xlink:href="#bF"/><use transform="matrix(0.05,0,0,0.05,77.7,0)" xlink:href="#bq"/><use transform="matrix(0.05,0,0,0.05,88.65,0)" xlink:href="#bx"/></g><path fill="#303030" d="M24-248c93 1 206-16 204 79-1 75-69 88-152 82V0H24v-248zm52 121c47 0 100 7 100-41 0-47-54-39-100-39v80" id="bG"/><path fill="#303030" d="M14-72v-43h91v43H14" id="bH"/><path fill="#303030" d="M110-194c64 0 96 36 96 99 0 64-35 99-97 99-61 0-95-36-95-99 0-62 34-99 96-99zm-1 164c35 0 45-28 45-65 0-40-10-65-43-65-34 0-45 26-45 65 0 36 10 65 43 65" id="bI"/><path fill="#303030" d="M137-138c1-29-70-34-71-4 15 46 118 7 119 86 1 83-164 76-172 9l43-7c4 19 20 25 44 25 33 8 57-30 24-41C81-84 22-81 20-136c-2-80 154-74 161-7" id="bJ"/><g id="ab"><use transform="matrix(0.05,0,0,0.05,0,0)" xlink:href="#bG"/><use transform="matrix(0.05,0,0,0.05,12,0)" xlink:href="#bl"/><use transform="matrix(0.05,0,0,0.05,19,0)" xlink:href="#bk"/><use transform="matrix(0.05,0,0,0.05,29,0)" xlink:href="#bH"/><use transform="matrix(0.05,0,0,0.05,34.95,0)" xlink:href="#bG"/><use transform="matrix(0.05,0,0,0.05,46.95,0)" xlink:href="#bl"/><use transform="matrix(0.05,0,0,0.05,53.95,0)" xlink:href="#bI"/><use transform="matrix(0.05,0,0,0.05,64.9,0)" xlink:href="#bn"/><use transform="matrix(0.05,0,0,0.05,74.9,0)" xlink:href="#bk"/><use transform="matrix(0.05,0,0,0.05,84.9,0)" xlink:href="#bJ"/><use transform="matrix(0.05,0,0,0.05,94.9,0)" xlink:href="#bJ"/><use transform="matrix(0.05,0,0,0.05,104.9,0)" xlink:href="#bj"/><use transform="matrix(0.05,0,0,0.05,109.9,0)" xlink:href="#br"/><use transform="matrix(0.05,0,0,0.05,120.85000000000001,0)" xlink:href="#bs"/></g><g id="ac"><use transform="matrix(0.05,0,0,0.05,0,0)" xlink:href="#bC"/><use transform="matrix(0.05,0,0,0.05,5,0)" xlink:href="#bz"/></g><g id="ad"><use transform="matrix(0.05,0,0,0.05,0,0)" xlink:href="#by"/><use transform="matrix(0.05,0,0,0.05,12,0)" xlink:href="#br"/><use transform="matrix(0.05,0,0,0.05,22.950000000000003,0)" xlink:href="#bs"/><use transform="matrix(0.05,0,0,0.05,33.900000000000006,0)" xlink:href="#bj"/><use transform="matrix(0.05,0,0,0.05,38.900000000000006,0)" xlink:href="#br"/><use transform="matrix(0.05,0,0,0.05,49.85000000000001,0)" xlink:href="#bk"/></g><g id="ae"><use transform="matrix(0.05,0,0,0.05,0,0)" xlink:href="#bq"/><use transform="matrix(0.05,0,0,0.05,9.950000000000001,0)" xlink:href="#bl"/><use transform="matrix(0.05,0,0,0.05,16.950000000000003,0)" xlink:href="#bm"/><use transform="matrix(0.05,0,0,0.05,26.950000000000003,0)" xlink:href="#bn"/><use transform="matrix(0.05,0,0,0.05,36.95,0)" xlink:href="#bk"/></g><path fill="#303030" d="M147 0L96-86 75-71V0H25v-261h50v150l67-79h53l-66 74L201 0h-54" id="bK"/><g id="af"><use transform="matrix(0.05,0,0,0.05,0,0)" xlink:href="#bp"/><use transform="matrix(0.05,0,0,0.05,5,0)" xlink:href="#bj"/><use transform="matrix(0.05,0,0,0.05,10,0)" xlink:href="#br"/><use transform="matrix(0.05,0,0,0.05,20.950000000000003,0)" xlink:href="#bK"/><use transform="matrix(0.05,0,0,0.05,30.950000000000003,0)" xlink:href="#bJ"/></g><path fill="#303030" d="M115-3C79 11 28 4 28-45v-112H4v-33h27l15-45h31v45h36v33H77v99c-1 23 16 31 38 25v30" id="bL"/><g id="ag"><use transform="matrix(0.05,0,0,0.05,0,0)" xlink:href="#bs"/><use transform="matrix(0.05,0,0,0.05,10.950000000000001,0)" xlink:href="#bk"/><use transform="matrix(0.05,0,0,0.05,20.950000000000003,0)" xlink:href="#br"/><use transform="matrix(0.05,0,0,0.05,31.900000000000006,0)" xlink:href="#bk"/><use transform="matrix(0.05,0,0,0.05,41.900000000000006,0)" xlink:href="#bl"/><use transform="matrix(0.05,0,0,0.05,48.900000000000006,0)" xlink:href="#bm"/><use transform="matrix(0.05,0,0,0.05,58.900000000000006,0)" xlink:href="#bL"/><use transform="matrix(0.05,0,0,0.05,64.85000000000001,0)" xlink:href="#bj"/><use transform="matrix(0.05,0,0,0.05,69.85000000000001,0)" xlink:href="#bI"/><use transform="matrix(0.05,0,0,0.05,80.80000000000001,0)" xlink:href="#br"/></g><path fill="#303030" d="M147 0H94L2-248h55l64 206c17-72 42-137 63-206h54" id="bM"/><path fill="#303030" d="M146-102V0H94v-102L6-248h54l60 105 60-105h54" id="bN"/><g id="ah"><use transform="matrix(0.05,0,0,0.05,0,0)" xlink:href="#bM"/><use transform="matrix(0.05,0,0,0.05,12,0)" xlink:href="#by"/><use transform="matrix(0.05,0,0,0.05,24,0)" xlink:href="#bz"/><use transform="matrix(0.05,0,0,0.05,36.95,0)" xlink:href="#bC"/><use transform="matrix(0.05,0,0,0.05,41.95,0)" xlink:href="#bB"/><use transform="matrix(0.05,0,0,0.05,52.900000000000006,0)" xlink:href="#bN"/></g><path fill="#303030" d="M24 0v-248h52v208h133V0H24" id="bO"/><path fill="#303030" d="M195 0l-88-114-31 24V0H24v-248h52v113l112-113h60L142-143 257 0h-62" id="bP"/><g id="ai"><use transform="matrix(0.05,0,0,0.05,0,0)" xlink:href="#bO"/><use transform="matrix(0.05,0,0,0.05,10.950000000000001,0)" xlink:href="#bC"/><use transform="matrix(0.05,0,0,0.05,15.950000000000001,0)" xlink:href="#bD"/><use transform="matrix(0.05,0,0,0.05,28.900000000000002,0)" xlink:href="#bP"/><use transform="matrix(0.05,0,0,0.05,41.85,0)" xlink:href="#bx"/></g><use transform="matrix(0.05,0,0,0.05,0,0)" xlink:href="#aH" id="aj"/><g id="ak"><use transform="matrix(0.05,0,0,0.05,0,0)" xlink:href="#aI"/><use transform="matrix(0.05,0,0,0.05,5.95,0)" xlink:href="#aM"/><use transform="matrix(0.05,0,0,0.05,18.900000000000002,0)" xlink:href="#aA"/><use transform="matrix(0.05,0,0,0.05,28.900000000000002,0)" xlink:href="#aL"/><use transform="matrix(0.05,0,0,0.05,37.900000000000006,0)" xlink:href="#ax"/><use transform="matrix(0.05,0,0,0.05,41.85000000000001,0)" xlink:href="#ay"/><use transform="matrix(0.05,0,0,0.05,51.85,0)" xlink:href="#av"/></g><g id="al"><use transform="matrix(0.05,0,0,0.05,0,0)" xlink:href="#at"/><use transform="matrix(0.05,0,0,0.05,12,0)" xlink:href="#ax"/><use transform="matrix(0.05,0,0,0.05,15.949999999999998,0)" xlink:href="#aw"/><use transform="matrix(0.05,0,0,0.05,30.899999999999995,0)" xlink:href="#ax"/><use transform="matrix(0.05,0,0,0.05,34.85,0)" xlink:href="#aW"/><use transform="matrix(0.05,0,0,0.05,38.800000000000004,0)" xlink:href="#aG"/><use transform="matrix(0.05,0,0,0.05,48.800000000000004,0)" xlink:href="#aC"/><use transform="matrix(0.05,0,0,0.05,54.75,0)" xlink:href="#ax"/><use transform="matrix(0.05,0,0,0.05,58.70000000000002,0)" xlink:href="#au"/><use transform="matrix(0.05,0,0,0.05,63.70000000000002,0)" xlink:href="#bd"/></g><g id="am"><use transform="matrix(0.05,0,0,0.05,0,0)" xlink:href="#at"/><use transform="matrix(0.05,0,0,0.05,12,0)" xlink:href="#aD"/><use transform="matrix(0.05,0,0,0.05,21,0)" xlink:href="#aA"/><use transform="matrix(0.05,0,0,0.05,31,0)" xlink:href="#aC"/><use transform="matrix(0.05,0,0,0.05,36.95,0)" xlink:href="#av"/><use transform="matrix(0.05,0,0,0.05,46.95,0)" xlink:href="#aN"/></g><use transform="matrix(0.05,0,0,0.05,0,0)" xlink:href="#bt" id="an"/><path fill="#303030" d="M190 0L58-211 59 0H30v-248h39L202-35l-2-213h31V0h-41" id="bQ"/><g id="ao"><use transform="matrix(0.05,0,0,0.05,0,0)" xlink:href="#bQ"/><use transform="matrix(0.05,0,0,0.05,12.950000000000001,0)" xlink:href="#aY"/></g><path fill="#fff" d="M233-177c-1 41-23 64-60 70L243 0h-38l-65-103H63V0H30v-248c88 3 205-21 203 71zM63-129c60-2 137 13 137-47 0-61-80-42-137-45v92" id="bR"/><path fill="#fff" d="M100-194c63 0 86 42 84 106H49c0 40 14 67 53 68 26 1 43-12 49-29l28 8c-11 28-37 45-77 45C44 4 14-33 15-96c1-61 26-98 85-98zm52 81c6-60-76-77-97-28-3 7-6 17-6 28h103" id="bS"/><path fill="#fff" d="M210-169c-67 3-38 105-44 169h-31v-121c0-29-5-50-35-48C34-165 62-65 56 0H25l-1-190h30c1 10-1 24 2 32 10-44 99-50 107 0 11-21 27-35 58-36 85-2 47 119 55 194h-31v-121c0-29-5-49-35-48" id="bT"/><path fill="#fff" d="M100-194c62-1 85 37 85 99 1 63-27 99-86 99S16-35 15-95c0-66 28-99 85-99zM99-20c44 1 53-31 53-75 0-43-8-75-51-75s-53 32-53 75 10 74 51 75" id="bU"/><path fill="#fff" d="M108 0H70L1-190h34L89-25l56-165h34" id="bV"/><g id="ap"><use transform="matrix(0.05,0,0,0.05,0,0)" xlink:href="#bR"/><use transform="matrix(0.05,0,0,0.05,12.950000000000001,0)" xlink:href="#bS"/><use transform="matrix(0.05,0,0,0.05,22.950000000000003,0)" xlink:href="#bT"/><use transform="matrix(0.05,0,0,0.05,37.900000000000006,0)" xlink:href="#bU"/><use transform="matrix(0.05,0,0,0.05,47.900000000000006,0)" xlink:href="#bV"/><use transform="matrix(0.05,0,0,0.05,56.900000000000006,0)" xlink:href="#bS"/></g><path fill="#fff" d="M101-234c-31-9-42 10-38 44h38v23H63V0H32v-167H5v-23h27c-7-52 17-82 69-68v24" id="bW"/><path fill="#fff" d="M114-163C36-179 61-72 57 0H25l-1-190h30c1 12-1 29 2 39 6-27 23-49 58-41v29" id="bX"/><g id="aq"><use transform="matrix(0.05,0,0,0.05,0,0)" xlink:href="#bW"/><use transform="matrix(0.05,0,0,0.05,5,0)" xlink:href="#bX"/><use transform="matrix(0.05,0,0,0.05,10.95,0)" xlink:href="#bU"/><use transform="matrix(0.05,0,0,0.05,20.95,0)" xlink:href="#bT"/></g><path fill="#fff" d="M141-36C126-15 110 5 73 4 37 3 15-17 15-53c-1-64 63-63 125-63 3-35-9-54-41-54-24 1-41 7-42 31l-33-3c5-37 33-52 76-52 45 0 72 20 72 64v82c-1 20 7 32 28 27v20c-31 9-61-2-59-35zM48-53c0 20 12 33 32 33 41-3 63-29 60-74-43 2-92-5-92 41" id="bY"/><path fill="#fff" d="M117-194c89-4 53 116 60 194h-32v-121c0-31-8-49-39-48C34-167 62-67 57 0H25l-1-190h30c1 10-1 24 2 32 11-22 29-35 61-36" id="bZ"/><path fill="#fff" d="M143 0L79-87 56-68V0H24v-261h32v163l83-92h37l-77 82L181 0h-38" id="ca"/><path fill="#fff" d="M85-194c31 0 48 13 60 33l-1-100h32l1 261h-30c-2-10 0-23-3-31C134-8 116 4 85 4 32 4 16-35 15-94c0-66 23-100 70-100zm9 24c-40 0-46 34-46 75 0 40 6 74 45 74 42 0 51-32 51-76 0-42-9-74-50-73" id="cb"/><g id="ar"><use transform="matrix(0.05,0,0,0.05,0,0)" xlink:href="#bR"/><use transform="matrix(0.05,0,0,0.05,12.950000000000001,0)" xlink:href="#bY"/><use transform="matrix(0.05,0,0,0.05,22.950000000000003,0)" xlink:href="#bZ"/><use transform="matrix(0.05,0,0,0.05,32.95,0)" xlink:href="#ca"/><use transform="matrix(0.05,0,0,0.05,41.95,0)" xlink:href="#bS"/><use transform="matrix(0.05,0,0,0.05,51.95,0)" xlink:href="#cb"/></g><path fill="#fff" d="M30 0v-248h33v221h125V0H30" id="cc"/><path fill="#fff" d="M24-231v-30h32v30H24zM24 0v-190h32V0H24" id="cd"/><path fill="#fff" d="M135-143c-3-34-86-38-87 0 15 53 115 12 119 90S17 21 10-45l28-5c4 36 97 45 98 0-10-56-113-15-118-90-4-57 82-63 122-42 12 7 21 19 24 35" id="ce"/><path fill="#fff" d="M59-47c-2 24 18 29 38 22v24C64 9 27 4 27-40v-127H5v-23h24l9-43h21v43h35v23H59v120" id="cf"/><g id="as"><use transform="matrix(0.05,0,0,0.05,0,0)" xlink:href="#cc"/><use transform="matrix(0.05,0,0,0.05,10,0)" xlink:href="#cd"/><use transform="matrix(0.05,0,0,0.05,13.949999999999998,0)" xlink:href="#ce"/><use transform="matrix(0.05,0,0,0.05,22.95,0)" xlink:href="#cf"/><use transform="matrix(0.05,0,0,0.05,27.950000000000003,0)" xlink:href="#ce"/></g></defs></g></svg>